<?xml version="1.0" standalone="no"?><!DOCTYPE svg PUBLIC "-//W3C//DTD SVG 1.1//EN" "http://www.w3.org/Graphics/SVG/1.1/DTD/svg11.dtd"><svg t="1758554726162" class="icon" viewBox="0 0 1024 1024" version="1.1" xmlns="http://www.w3.org/2000/svg" p-id="17247" xmlns:xlink="http://www.w3.org/1999/xlink" width="200" height="200"><path d="M788.992 670.72l-48.128 79.36c-3.072 5.12-9.216 8.704-15.36 8.704H415.232c-14.848 0-23.04-17.408-13.824-29.184l169.984-207.872c4.608-5.632 5.12-14.336 1.536-20.48L416.768 247.808c-7.168-11.776 1.024-27.136 15.36-27.136h235.008c5.632 0 10.752 2.56 13.824 6.656l76.8 98.304c3.584 4.096 8.704 6.656 13.824 6.656h5.12c9.728 0 17.92-8.192 17.92-17.92v-143.36c0-9.728-8.192-17.92-17.92-17.92H219.648c-11.776 0-21.504 9.728-21.504 21.504v1.024c0 4.608 1.536 8.704 4.096 12.288l239.104 342.016c4.608 6.656 4.096 15.36-1.024 21.504l-237.056 284.16c-3.072 4.096-5.12 8.704-5.12 13.824 0 11.776 9.728 21.504 21.504 21.504h588.288c9.728 0 17.92-8.192 17.92-17.92v-173.056c0-9.728-8.192-17.92-17.92-17.92h-3.584c-6.144 0-11.776 3.072-15.36 8.704z" fill="#2c2c2c" p-id="17248" data-spm-anchor-id="a313x.search_index.0.i7.51fd3a81s9N9zc" class="selected"></path></svg>