<?xml version="1.0" standalone="no"?><!DOCTYPE svg PUBLIC "-//W3C//DTD SVG 1.1//EN" "http://www.w3.org/Graphics/SVG/1.1/DTD/svg11.dtd"><svg t="1758183498223" class="icon" viewBox="0 0 1024 1024" version="1.1" xmlns="http://www.w3.org/2000/svg" p-id="15194" xmlns:xlink="http://www.w3.org/1999/xlink" width="200" height="200"><path d="M268 229.256h525.3c19.33 0 35-15.67 35-35s-15.67-35-35-35H268c-19.33 0-35 15.67-35 35s15.67 35 35 35z" fill="#333333" p-id="15195"></path><path d="M642.38 150.645l134 74c16.922 9.345 38.214 3.202 47.559-13.719 9.344-16.921 3.202-38.214-13.72-47.558l-134-74c-16.92-9.345-38.213-3.203-47.557 13.719-9.345 16.92-3.203 38.213 13.718 47.558z" fill="#333333" p-id="15196"></path><path d="M679.44 303.938l132-80c16.532-10.018 21.81-31.541 11.792-48.072-10.019-16.531-31.541-21.81-48.072-11.791l-132 80c-16.531 10.018-21.81 31.541-11.792 48.072 10.019 16.531 31.542 21.81 48.073 11.791zM409.2 919c-60 0-108.2-17.4-144.6-52.2C228.2 832 210 784.2 210 723.4c0-67.2 20-134 60-200.4 60.8-93.6 144-145.2 249.6-154.8l3.6-1.2h6c1.6 0 4.4 0.2 8.4 0.6 4 0.4 7.2 0.6 9.6 0.6 41.6 0 76 11.6 103.2 34.8l7.2 4.8 2.4-1.2 4.8-2.4c15.2-11.2 32-16.8 50.4-16.8s33 5.2 43.8 15.6c10.8 10.4 16.2 24.4 16.2 42 0 5.6-6.6 35.4-19.8 89.4-13.2 54-27.2 109.8-42 167.4-14.8 57.6-23 91.2-24.6 100.8-0.8 4-1.2 12-1.2 24v7.2c0 16 5.2 24 15.6 24 19.2 0 38-35.6 56.4-106.8 4.8-17.6 8.6-28 11.4-31.2 2.8-3.2 11-4.8 24.6-4.8h12c20 0 31.6 0.8 34.8 2.4 5.6 3.2 8.4 8 8.4 14.4s-4 20.8-12 43.2c-10.4 28.8-22.8 54.8-37.2 78-22.4 32.8-48.8 53.6-79.2 62.4-5.6 1.6-16 2.4-31.2 2.4-52 0-93.6-17.6-124.8-52.8l-10.8 7.2C510.8 903.4 462 919 409.2 919z m210-426c-10.4-31.2-30-52-58.8-62.4-4.8-0.8-14.8-1.2-30-1.2-25.6 0-50.8 12.4-75.6 37.2-14.4 14.4-26.6 34-36.6 58.8-10 24.8-21.8 64.8-35.4 120-16.8 66.4-25.2 113.2-25.2 140.4 0 14.4 0.4 23.6 1.2 27.6 9.6 29.6 30.4 44.4 62.4 44.4 44.8 0 84.4-22 118.8-66l7.2-8.4c8-32 20-80.2 36-144.6 16-64.4 28-113 36-145.8z" fill="#333333" p-id="15197"></path></svg>