<?xml version="1.0" standalone="no"?><!DOCTYPE svg PUBLIC "-//W3C//DTD SVG 1.1//EN" "http://www.w3.org/Graphics/SVG/1.1/DTD/svg11.dtd"><svg t="1758183955538" class="icon" viewBox="0 0 1024 1024" version="1.1" xmlns="http://www.w3.org/2000/svg" p-id="39498" xmlns:xlink="http://www.w3.org/1999/xlink" width="200" height="200"><path d="M262.4 374.4l195.2-35.2c35.2 57.6 60.8 118.4 76.8 185.6 35.2-54.4 64-92.8 83.2-115.2 25.6-28.8 44.8-48 60.8-57.6s35.2-12.8 51.2-12.8c19.2 0 35.2 6.4 48 16 9.6 12.8 16 25.6 16 44.8 0 19.2-6.4 32-16 44.8s-25.6 16-41.6 16c-12.8 0-25.6-3.2-41.6-6.4-9.6-3.2-22.4-6.4-32-6.4-16 0-32 6.4-44.8 16-19.2 16-44.8 48-73.6 99.2 32 112 57.6 182.4 76.8 204.8 12.8 16 22.4 22.4 35.2 22.4 9.6 0 19.2-3.2 25.6-6.4 9.6-6.4 28.8-28.8 51.2-57.6l19.2 12.8c-32 54.4-64 89.6-96 112-25.6 16-48 25.6-70.4 25.6-25.6 0-44.8-6.4-60.8-16S496 832 483.2 809.6c-12.8-25.6-25.6-64-44.8-115.2-44.8 54.4-76.8 96-102.4 121.6-25.6 25.6-44.8 41.6-60.8 51.2-16 6.4-35.2 12.8-54.4 12.8s-35.2-6.4-48-16c-9.6-16-16-28.8-16-48s6.4-35.2 19.2-48 28.8-19.2 48-19.2c9.6 0 22.4 3.2 35.2 9.6 19.2 9.6 32 12.8 41.6 12.8s19.2-3.2 28.8-6.4c12.8-6.4 25.6-19.2 41.6-35.2 9.6-12.8 28.8-35.2 57.6-73.6-35.2-134.4-64-214.4-83.2-240-12.8-16-28.8-25.6-48-25.6-9.6 0-22.4 0-38.4 3.2l3.2-19.2z m-128-220.8h748.8c25.6 0 38.4 12.8 38.4 38.4 0 25.6-12.8 38.4-38.4 38.4H134.4c-25.6 0-38.4-12.8-38.4-38.4 0-25.6 12.8-38.4 38.4-38.4z" fill="#2c2c2c" p-id="39499" data-spm-anchor-id="a313x.search_index.0.i12.52123a81d8G4eo" class="selected"></path></svg>